<svg xmlns="http://www.w3.org/2000/svg" viewBox="0 0 812 183"><defs><style>.cls-1{fill:#77d0e9;}.cls-2{fill:#d1ffb6;}.cls-3{fill:#ffa9bb;}</style></defs><title>アートボード 6</title><g id="スペースグレーの携帯電話"><path class="cls-1" d="M35.13,167c-15.73,0-23.07-3.57-23.07-22.24v-107c0-18.67,7.34-22.24,23.07-22.24H93.45c15.73,0,23.07,3.57,23.07,22.24V60.68H102.26V38.24c0-6.09-1.26-9.44-9.65-9.44H36c-8.39,0-9.65,3.35-9.65,9.44V144.59c0,6.09,1.26,9.44,9.65,9.44H92.61c8.6,0,9.65-3.35,9.65-9.44V121.94h14.26V144.8c0,18.67-7.34,22.24-23.07,22.24Z"/><path class="cls-2" d="M164.14,167c-15.73,0-23.08-3.57-23.08-22.24v-107c0-18.67,7.35-22.24,23.08-22.24h64.61c15.74,0,23.08,3.57,23.08,22.24v107c0,18.67-7.34,22.24-23.08,22.24Zm73.63-128.8c0-6.09-1.26-9.44-9.65-9.44H165c-8.39,0-9.65,3.35-9.65,9.44V144.59c0,6.09,1.26,9.44,9.65,9.44h63.14c8.6,0,9.65-3.35,9.65-9.44Z"/><path class="cls-3" d="M280.56,167V15.58h85c15.74,0,23.08,3.57,23.08,22.24v107c0,18.67-7.34,22.24-23.08,22.24Zm94-128.8c0-6.09-1.25-9.44-9.65-9.44H294.83V154h70.06c8.61,0,9.65-3.35,9.65-9.44Z"/><path class="cls-3" d="M440,167c-15.73,0-23.07-3.57-23.07-22.24v-107c0-18.67,7.34-22.24,23.07-22.24H504.6c15.74,0,23.08,3.57,23.08,22.24v107c0,18.67-7.34,22.24-23.08,22.24Zm73.63-128.8c0-6.09-1.25-9.44-9.65-9.44H440.83c-8.39,0-9.65,3.35-9.65,9.44V144.59c0,6.09,1.26,9.44,9.65,9.44H504c8.6,0,9.65-3.35,9.65-9.44Z"/><path class="cls-3" d="M579.07,167C563.34,167,556,163.47,556,144.8v-107c0-18.67,7.34-22.24,23.07-22.24h64.61c15.74,0,23.08,3.57,23.08,22.24v107c0,18.67-7.34,22.24-23.08,22.24ZM652.7,38.24c0-6.09-1.26-9.44-9.65-9.44H579.91c-8.39,0-9.65,3.35-9.65,9.44V144.59c0,6.09,1.26,9.44,9.65,9.44h63.14c8.6,0,9.65-3.35,9.65-9.44Z"/><path class="cls-3" d="M782.13,167l-37.55-58.11H709.76V167H695.5V15.58h79.29c15.73,0,23.08,3.57,23.08,22.24V86.69c0,18.67-7.35,22.24-23.08,22.24h-15.1L797.24,167Zm1.68-128.8c0-6.09-1.26-9.44-9.65-9.44h-64.4V95.92h64.4c8.6,0,9.65-3.35,9.65-9.44Z"/></g></svg>